<?xml version="1.0" encoding="UTF-8"?>
<svg version="1.1" xmlns="http://www.w3.org/2000/svg" width="640" height="640">
<path d="M0 0 C211.2 0 422.4 0 640 0 C640 211.2 640 422.4 640 640 C428.8 640 217.6 640 0 640 C0 428.8 0 217.6 0 0 Z " fill="#F3F3F3" transform="translate(0,0)"/>
<path d="M0 0 C3.06556857 1.36578915 5.14958638 2.91158026 7.49609375 5.30078125 C8.45805664 6.27241211 8.45805664 6.27241211 9.43945312 7.26367188 C10.09880859 7.93978516 10.75816406 8.61589844 11.4375 9.3125 C12.09298828 9.97701172 12.74847656 10.64152344 13.42382812 11.32617188 C14.70488752 12.62522007 15.9840767 13.92611571 17.26123047 15.22900391 C21.53310201 19.61249256 21.53310201 19.61249256 26.02687073 23.76170349 C31.173174 29.59961427 31.19413723 39.20023068 30.94022655 46.71344471 C28.99657818 68.434118 6.10074963 84.35989477 -8.9101702 98.23051417 C-13.98308945 102.9240979 -18.96213055 107.71266267 -23.93565643 112.51110923 C-32.42344711 120.69908259 -40.9645276 128.82700594 -49.60829163 136.85044861 C-50.30804108 137.50388245 -51.00779053 138.15731628 -51.72874451 138.83055115 C-52.33989326 139.39791709 -52.951042 139.96528303 -53.58071041 140.54984188 C-55.10943124 141.96385877 -55.10943124 141.96385877 -56 144 C-60.19981961 143.49098624 -62.10492926 142.37939566 -65.03125 139.359375 C-65.75957031 138.61816406 -66.48789062 137.87695312 -67.23828125 137.11328125 C-68.35783203 135.94345703 -68.35783203 135.94345703 -69.5 134.75 C-70.24636719 133.98558594 -70.99273437 133.22117187 -71.76171875 132.43359375 C-73.21507451 130.94422563 -74.66488204 129.45138548 -76.11083984 127.95483398 C-79.81425054 124.12267975 -83.61768709 120.40578464 -87.4609375 116.71484375 C-89.09925179 115.12269774 -90.7372652 113.53024208 -92.375 111.9375 C-93.21933594 111.13505859 -94.06367188 110.33261719 -94.93359375 109.50585938 C-96.12275391 108.34086914 -96.12275391 108.34086914 -97.3359375 107.15234375 C-98.06345215 106.45101318 -98.7909668 105.74968262 -99.54052734 105.02709961 C-101 103 -101 103 -100.81137085 101.11474609 C-99.80228661 98.48468246 -98.47891098 97.11806492 -96.47753906 95.13696289 C-95.36067719 94.0204409 -95.36067719 94.0204409 -94.22125244 92.88136292 C-93.41089539 92.08648972 -92.60053833 91.29161652 -91.765625 90.47265625 C-90.93544861 89.6467247 -90.10527222 88.82079315 -89.24993896 87.96983337 C-86.59024393 85.32693966 -83.92033467 82.69463898 -81.25 80.0625 C-79.46545997 78.29300914 -77.6815975 76.52283467 -75.8984375 74.75195312 C-71.90742505 70.79074074 -67.91211747 66.8340004 -63.90344238 62.89065552 C-62.29081778 61.28886413 -60.7134599 59.66079198 -59.13964844 58.02124023 C-57 56 -57 56 -54 55 C-53.29974583 53.68399608 -52.63689351 52.34780892 -52 51 C-50.4753418 49.24829102 -50.4753418 49.24829102 -48.69921875 47.50390625 C-48.05146484 46.86259766 -47.40371094 46.22128906 -46.73632812 45.56054688 C-46.06021484 44.90119141 -45.38410156 44.24183594 -44.6875 43.5625 C-44.02298828 42.90701172 -43.35847656 42.25152344 -42.67382812 41.57617188 C-41.3697408 40.29014313 -40.06386462 39.00592552 -38.75610352 37.72363281 C-35.23529443 34.26792419 -31.76476968 30.76259142 -28.29296875 27.2578125 C-26.9245318 25.88015605 -25.55604103 24.50255306 -24.1875 23.125 C-23.17719727 22.10212891 -23.17719727 22.10212891 -22.14648438 21.05859375 C-18.15738451 17.05040728 -14.06197127 13.24516196 -9.77856445 9.55371094 C-7.59258367 7.64409094 -5.53384178 5.63266038 -3.5 3.5625 C-2.8296875 2.88316406 -2.159375 2.20382812 -1.46875 1.50390625 C-0.9840625 1.00761719 -0.499375 0.51132812 0 0 Z " fill="#1B1B1B" transform="translate(378,268)"/>
<path d="M0 0 C2.38076827 0.95237943 3.68667676 2.18510675 5.48925304 4.00777054 C6.17353878 4.69228287 6.85782452 5.3767952 7.56284618 6.08205032 C8.65672398 7.1991539 8.65672398 7.1991539 9.77270031 8.33882523 C10.53204372 9.10241348 11.29138714 9.86600174 12.07374096 10.65272903 C14.50265604 13.09843892 16.92096065 15.55434651 19.33910656 18.01070023 C20.9640653 19.65070938 22.58970865 21.29004051 24.21605968 22.92866898 C27.20983609 25.94694122 30.19961267 28.96905362 33.18456554 31.99605179 C36.07814038 34.92993218 38.98300753 37.85172178 41.90160656 40.76070023 C40.43962739 44.1301943 38.58023236 46.32730418 35.98533154 48.91075516 C35.16785442 49.72953644 34.35037731 50.54831772 33.50812817 51.39191055 C32.16073811 52.72615822 32.16073811 52.72615822 30.78612804 54.08736038 C29.83136587 55.0399206 28.87705162 55.99292996 27.92315197 56.94635391 C25.87057189 58.99600338 23.8148782 61.04245935 21.75670719 63.08649445 C18.50414318 66.31678686 15.25868717 69.55415767 12.01417065 72.79253006 C6.88389665 77.91142766 1.74897024 83.02562888 -3.38800138 88.13780439 C-12.59394547 97.29939237 -21.79428512 106.46660039 -30.98944896 115.63900793 C-34.21798509 118.85912288 -37.44930822 122.07640762 -40.68287957 125.291466 C-42.69040595 127.28837156 -44.69592065 129.28728839 -46.7009325 131.28671837 C-48.07906446 132.65970818 -49.45972365 134.03015982 -50.84044361 135.40054703 C-51.6551009 136.21368866 -52.46975819 137.02683029 -53.30910206 137.86461258 C-54.02089398 138.57288507 -54.73268591 139.28115757 -55.46604729 140.01089287 C-57.17424862 141.67648593 -57.17424862 141.67648593 -58.09839344 143.76070023 C-67.80606754 142.41305689 -78.9123882 129.2864389 -84.67407703 121.77779007 C-89.1874574 115.05475346 -89.36059479 107.50408184 -89.16089344 99.63570023 C-89.15110462 98.89659409 -89.1413158 98.15748795 -89.13123035 97.39598465 C-88.80966044 85.47054774 -88.80966044 85.47054774 -85.49915314 82.16278648 C-84.84319562 81.6250202 -84.1872381 81.08725391 -83.51140308 80.53319168 C-79.16802832 76.85894186 -75.17264859 72.93579154 -71.1853075 68.88179398 C-70.43953953 68.12814056 -69.69377155 67.37448715 -68.92540455 66.59799576 C-67.32081775 64.97632647 -65.71728877 63.35360995 -64.11472797 61.72993851 C-60.70818696 58.28112921 -57.2921461 54.84179523 -53.87666416 51.40184402 C-47.52925036 45.00874938 -41.18585049 38.61179212 -34.85864735 32.19868851 C-30.44463228 27.72547749 -26.01866921 23.2644069 -21.58440876 18.81126785 C-19.89732405 17.1124088 -18.21479332 15.40901504 -16.53687763 13.7010994 C-14.20052927 11.32399701 -11.84930639 8.96264885 -9.49390125 6.60445023 C-8.80084385 5.8918454 -8.10778645 5.17924057 -7.3937273 4.44504166 C-6.75190006 3.80864258 -6.11007282 3.1722435 -5.44879627 2.5165596 C-4.61817614 1.67707779 -4.61817614 1.67707779 -3.77077579 0.82063675 C-2.09839344 -0.23929977 -2.09839344 -0.23929977 0 0 Z " fill="#1B1B1B" transform="translate(320.0983934402466,209.23929977416992)"/>
<path d="M0 0 C2.86724686 0.57344937 3.8614515 0.8614515 6 3 C6.30656764 5.51739196 6.46179272 7.85331966 6.5 10.375 C6.54125 11.04789062 6.5825 11.72078125 6.625 12.4140625 C6.65625 14.3984375 6.65625 14.3984375 6 18 C4.03118691 19.37896802 2.02530446 20.70542686 0 22 C-1.92145988 23.77664055 -3.75711762 25.55209131 -5.57470703 27.42700195 C-6.09585083 27.95588516 -6.61699463 28.48476837 -7.15393066 29.02967834 C-8.27570206 30.16899647 -9.39522841 31.31052868 -10.51269913 32.45406532 C-12.28106853 34.26205837 -14.05703408 36.06225765 -15.8354187 37.86039734 C-20.88735853 42.97022268 -25.9291664 48.08987946 -30.95654297 53.22387695 C-34.03917258 56.3707923 -37.13375042 59.50552457 -40.23629379 62.63280296 C-41.4155564 63.82635076 -42.59012141 65.02455859 -43.75989151 66.22741127 C-45.39008441 67.90310449 -47.03495714 69.56293707 -48.68408203 71.2199707 C-49.16521454 71.72222168 -49.64634705 72.22447266 -50.14205933 72.74194336 C-51.50930786 74.09712219 -51.50930786 74.09712219 -54 76 C-57.54179149 75.82654197 -59.33482982 74.123441 -61.8125 71.6875 C-62.43769531 71.09324219 -63.06289063 70.49898438 -63.70703125 69.88671875 C-65 68 -65 68 -64.78759766 66.11157227 C-63.83534079 63.55854385 -62.61973394 62.24703628 -60.69140625 60.328125 C-60.02689453 59.66425781 -59.36238281 59.00039063 -58.67773438 58.31640625 C-57.63069336 57.29353516 -57.63069336 57.29353516 -56.5625 56.25 C-55.86833984 55.55261719 -55.17417969 54.85523438 -54.45898438 54.13671875 C-49.26697805 49 -49.26697805 49 -47 49 C-46.73832031 48.40058594 -46.47664063 47.80117188 -46.20703125 47.18359375 C-44.92779812 44.86938236 -43.73749558 43.70340555 -41.6875 42.0625 C-37.76690265 38.82516028 -34.18504235 35.48130293 -31 31.5 C-28.82768896 28.7846112 -26.55776223 26.35583364 -24 24 C-23.34 24 -22.68 24 -22 24 C-21.73832031 23.40058594 -21.47664063 22.80117188 -21.20703125 22.18359375 C-19.92779812 19.86938236 -18.73749558 18.70340555 -16.6875 17.0625 C-13.60958164 14.52624429 -10.78621341 11.85953481 -8 9 C-6.700625 7.7315625 -6.700625 7.7315625 -5.375 6.4375 C-3.36916527 4.37888015 -1.65035311 2.34523863 0 0 Z " fill="#EEEFED" transform="translate(377,301)"/>
<path d="M0 0 C2.83791454 1.59632693 4.79659154 3.74763824 7 6.125 C7.99 7.115 7.99 7.115 9 8.125 C9 11.125 9 11.125 7.72351074 12.47914124 C7.10254517 12.97337082 6.48157959 13.4676004 5.84179688 13.97680664 C1.96109645 17.23266923 -1.65385151 20.66506208 -5.23242188 24.24389648 C-5.8033683 24.81430192 -6.37431473 25.38470736 -6.96256256 25.9723978 C-8.7999236 27.81167993 -10.6343683 29.65384063 -12.46875 31.49609375 C-13.75747072 32.78668285 -15.04641485 34.0770489 -16.33557129 35.36720276 C-19.70457828 38.74000184 -23.07056955 42.11579462 -26.43591309 45.49224854 C-29.87991623 48.94653745 -33.32680249 52.39794685 -36.7734375 55.84960938 C-43.51842839 62.60527913 -50.26023258 69.36411934 -57 76.125 C-60.875 74.25 -60.875 74.25 -62 73.125 C-63.48027506 68.33855575 -63.75598699 63.84335548 -62 59.125 C-56.9306719 51.53998736 -49.73298746 45.45899692 -43.125 39.25 C-41.30811738 37.48624071 -39.49427915 35.71933956 -37.68359375 33.94921875 C-34.37840102 30.74441478 -31.06850637 27.54574937 -27.71533203 24.39111328 C-26.70939499 23.44185471 -26.70939499 23.44185471 -25.68313599 22.47341919 C-24 21.125 -24 21.125 -22 21.125 C-21.70029297 20.31869141 -21.70029297 20.31869141 -21.39453125 19.49609375 C-19.39301813 16.0929608 -16.62015549 13.79466653 -13.6875 11.1875 C-12.54466469 10.15855994 -11.40272567 9.12862346 -10.26171875 8.09765625 C-9.7104834 7.60265625 -9.15924805 7.10765625 -8.59130859 6.59765625 C-7.07534171 5.19472402 -5.6388486 3.74194542 -4.20703125 2.25390625 C-2 0.125 -2 0.125 0 0 Z " fill="#EEEEEC" transform="translate(318,243.875)"/>
<path d="M0 0 C1 2 1 2 0.375 4 C-1.39642699 6.57662108 -3.1438383 6.85753532 -6 8 C-6.69937532 9.31647119 -7.36729133 10.65022151 -8 12 C-10.125 13.25 -10.125 13.25 -12 14 C-9.87753203 10.13284962 -7.47253855 7.25594323 -4.3125 4.1875 C-3.50425781 3.39730469 -2.69601562 2.60710937 -1.86328125 1.79296875 C-1.24839844 1.20128906 -0.63351562 0.60960937 0 0 Z " fill="#454646" transform="translate(355,290)"/>
<path d="M0 0 C0.66 0.66 1.32 1.32 2 2 C-1.33562767 6.51290803 -3.33289301 8.68206814 -9 10 C-8.06409496 8.8944811 -7.12620142 7.79064547 -6.1875 6.6875 C-5.66542969 6.07261719 -5.14335937 5.45773437 -4.60546875 4.82421875 C-3.12827531 3.14575321 -1.59960869 1.56117966 0 0 Z " fill="#383B39" transform="translate(353,346)"/>
<path d="M0 0 C0 4.29525524 -2.23382207 5.83865379 -5 9 C-5.99 10.485 -5.99 10.485 -7 12 C-8.32 12 -9.64 12 -11 12 C-11 11.34 -11 10.68 -11 10 C-9.35546875 8.37890625 -9.35546875 8.37890625 -7.1875 6.5625 C-4.68897282 4.45536324 -2.2757944 2.34758602 0 0 Z " fill="#373836" transform="translate(332,367)"/>
<path d="M0 0 C1.8125 0.25 1.8125 0.25 4 1 C4.99 2.32 5.98 3.64 7 5 C3.37 5 -0.26 5 -4 5 C-2.68 3.35 -1.36 1.7 0 0 Z " fill="#2A2C2A" transform="translate(318,209)"/>
<path d="M0 0 C0.75 1.75 0.75 1.75 1 4 C-1.71699158 7.69510854 -4.65638712 8.81537831 -9 10 C-8.06409496 8.8944811 -7.12620142 7.79064547 -6.1875 6.6875 C-5.66542969 6.07261719 -5.14335937 5.45773437 -4.60546875 4.82421875 C-3.12827531 3.14575321 -1.59960869 1.56117966 0 0 Z " fill="#CECECE" transform="translate(338,275)"/>
<path d="M0 0 C0.33 0.66 0.66 1.32 1 2 C-0.54442235 5.63393495 -1.48567857 6.78822059 -5.1875 8.3125 C-6.5796875 8.6528125 -6.5796875 8.6528125 -8 9 C-7.04270084 7.87411986 -6.08412105 6.7493285 -5.125 5.625 C-4.59132813 4.99851562 -4.05765625 4.37203125 -3.5078125 3.7265625 C-2.38567993 2.44163349 -1.20628025 1.20628025 0 0 Z " fill="#4D4E4D" transform="translate(303,342)"/>
<path d="M0 0 C0.1875 2.375 0.1875 2.375 0 5 C-0.99 5.66 -1.98 6.32 -3 7 C-3.99 6.34 -4.98 5.68 -6 5 C-1.125 0 -1.125 0 0 0 Z " fill="#DDDFDD" transform="translate(316,245)"/>
<path d="M0 0 C0 4.35251187 -2.06165511 5.92809398 -5 9 C-7.171875 9.6796875 -7.171875 9.6796875 -9 10 C-8.06409496 8.8944811 -7.12620142 7.79064547 -6.1875 6.6875 C-5.66542969 6.07261719 -5.14335937 5.45773437 -4.60546875 4.82421875 C-3.12827531 3.14575321 -1.59960869 1.56117966 0 0 Z " fill="#555555" transform="translate(289,356)"/>
<path d="M0 0 C0.66 0.33 1.32 0.66 2 1 C-0.97 3.64 -3.94 6.28 -7 9 C-7.66 8.67 -8.32 8.34 -9 8 C-7.88625 7.13375 -7.88625 7.13375 -6.75 6.25 C-4.33912357 4.27746474 -2.15957299 2.23955718 0 0 Z " fill="#C7C8C7" transform="translate(374,305)"/>
<path d="M0 0 C0 3 0 3 -2.25 5.5625 C-4.55902983 7.60914008 -6.26579189 8.73221547 -9 10 C-8.06409496 8.8944811 -7.12620142 7.79064547 -6.1875 6.6875 C-5.66542969 6.07261719 -5.14335937 5.45773437 -4.60546875 4.82421875 C-3.12827531 3.14575321 -1.59960869 1.56117966 0 0 Z " fill="#BFBEBF" transform="translate(328,285)"/>
<path d="M0 0 C0.33 0.99 0.66 1.98 1 3 C0.01 3.33 -0.98 3.66 -2 4 C-3.20882096 6.00016466 -3.20882096 6.00016466 -4 8 C-4.99 7.67 -5.98 7.34 -7 7 C-4.69 4.69 -2.38 2.38 0 0 Z " fill="#BFBFBF" transform="translate(276,283)"/>
<path d="M0 0 C0 3 0 3 -2.3125 5.6875 C-5 8 -5 8 -8 8 C-5.36 5.36 -2.72 2.72 0 0 Z " fill="#C1C2C1" transform="translate(288,325)"/>
<path d="M0 0 C0.66 0.33 1.32 0.66 2 1 C1.1875 3.4375 1.1875 3.4375 0 6 C-0.99 6.33 -1.98 6.66 -3 7 C-3 3.48283697 -2.17554415 2.62878252 0 0 Z " fill="#E7E7E6" transform="translate(343,298)"/>
<path d="M0 0 C0.99 1.32 1.98 2.64 3 4 C0.36 4.66 -2.28 5.32 -5 6 C-3.35 4.02 -1.7 2.04 0 0 Z " fill="#3F4141" transform="translate(297,283)"/>
<path d="M0 0 C0 3 0 3 -2.5 5.6875 C-3.325 6.450625 -4.15 7.21375 -5 8 C-5.66 7.67 -6.32 7.34 -7 7 C-4.69 4.69 -2.38 2.38 0 0 Z " fill="#585A59" transform="translate(313,332)"/>
<path d="M0 0 C0.66 0 1.32 0 2 0 C0.60667426 3.36720387 -0.9789286 4.9859524 -4 7 C-4.66 6.67 -5.32 6.34 -6 6 C-5.38125 5.7525 -4.7625 5.505 -4.125 5.25 C-1.64931313 3.79371361 -1.04874998 2.62187494 0 0 Z " fill="#BDBEBD" transform="translate(357,321)"/>
<path d="M0 0 C0 3 0 3 -1 6 C-2.65 6.33 -4.3 6.66 -6 7 C-4.02 4.69 -2.04 2.38 0 0 Z " fill="#4B4D4B" transform="translate(304,276)"/>
</svg>
